<svg version="1.1" id="Layer_1" xmlns="http://www.w3.org/2000/svg" xmlns:xlink="http://www.w3.org/1999/xlink" x="0px" y="0px"
	 width="100%" viewBox="0 0 134 139" enable-background="new 0 0 134 139" xml:space="preserve">
<path fill="#E8372D" opacity="1.000000" stroke="none" 
	d="
M1.000000,27.000000 
	C1.000000,26.250000 1.000000,25.500000 1.220152,24.716167 
	C2.908573,23.339643 4.282798,21.872551 5.863021,20.677954 
	C10.319424,17.309050 14.014247,12.887034 21.046713,16.631443 
	C25.078337,18.778065 29.946262,16.459120 33.608536,12.962957 
	C37.294285,9.444385 41.321781,6.285500 45.139454,2.901242 
	C45.614666,2.479979 45.722134,1.643879 46.000000,1.000000 
	C46.750000,1.000000 47.500000,1.000000 48.624771,1.397248 
	C48.423477,3.639075 47.929649,5.514206 47.257614,7.323133 
	C43.667377,16.987017 40.032619,26.634363 36.268955,36.672295 
	C39.910496,36.672295 42.321388,36.672295 44.692188,36.672295 
	C45.974464,21.757601 54.686253,9.423485 66.854561,6.831180 
	C65.427025,9.464325 64.882179,11.741522 63.439148,12.897538 
	C58.712204,16.684309 59.899467,21.883518 59.088898,25.891226 
	C65.736443,24.898989 72.089882,23.228188 78.460350,23.160501 
	C89.406189,23.044201 100.108452,21.936178 110.271362,17.900442 
	C114.543518,16.203951 118.318863,13.256388 123.234756,10.333747 
	C123.234756,15.975306 123.234756,20.733938 123.234756,25.555334 
	C127.231583,24.687250 131.115799,23.843626 135.000000,23.000000 
	C135.000000,23.750000 135.000000,24.500000 134.777710,25.283772 
	C132.652237,26.889742 130.925400,28.772430 128.811234,29.973131 
	C123.489716,32.995377 122.179329,37.491673 122.992889,43.184402 
	C125.401268,60.036469 127.539650,76.929367 130.177612,93.744484 
	C130.705307,97.108185 130.019684,98.737061 127.323578,100.481895 
	C126.092712,101.278473 125.170273,103.426384 125.121788,104.992783 
	C125.021339,108.237877 125.762337,111.500938 125.822540,114.762794 
	C125.848923,116.191978 125.054565,117.636314 124.632896,119.073776 
	C124.189598,118.978073 123.746300,118.882370 123.303001,118.786667 
	C122.743332,114.447388 122.183662,110.108109 121.621254,105.747581 
	C119.997391,106.466934 118.275955,107.229515 115.728813,108.357864 
	C112.952637,84.987480 110.247772,62.217373 107.424057,38.446739 
	C106.554031,39.766132 105.144684,40.918755 105.100319,42.121716 
	C104.611237,55.384163 104.180862,68.652802 104.039688,81.923012 
	C103.871307,97.752090 103.999985,113.584312 103.999977,129.415176 
	C103.999977,131.203308 103.999977,132.991440 103.999977,134.838470 
	C102.921211,134.838470 101.997490,134.839294 101.997490,134.838348 
	C101.936790,103.328659 101.936806,71.818840 101.936806,40.309025 
	C100.458450,41.398834 99.118965,43.101452 99.097115,44.820816 
	C98.923492,58.483147 98.978485,72.148735 99.026329,85.813103 
	C99.032616,87.608276 99.554382,89.401138 99.566383,91.196884 
	C99.625496,100.046227 99.593262,108.896172 99.593262,117.745911 
	C99.104507,117.839233 98.615753,117.932556 98.126999,118.025871 
	C97.751434,116.376060 97.118599,114.737938 97.042992,113.074486 
	C96.621841,103.809738 96.219002,94.541138 96.038170,85.269402 
	C95.875732,76.940598 95.842278,68.601608 96.065681,60.275532 
	C96.227005,54.263275 96.902641,48.264816 97.407959,41.465416 
	C92.670456,42.874947 88.970238,43.645550 85.600899,45.154816 
	C84.397400,45.693913 83.112030,48.196167 83.371750,49.502636 
	C84.894798,57.164177 86.933342,64.721397 88.652222,72.346680 
	C89.445061,75.863846 89.231453,78.928169 85.555847,81.301521 
	C81.078415,84.192596 77.847099,87.993599 78.890762,94.184616 
	C79.491669,97.749191 79.102165,101.503326 78.929398,105.161316 
	C78.880577,106.194962 78.023895,107.190445 76.928207,109.473434 
	C74.815941,101.555206 77.503166,94.736877 74.500000,87.207603 
	C74.500000,99.033348 74.500000,109.407486 74.500000,119.781631 
	C72.937149,119.049316 72.101364,117.920151 72.059303,116.762146 
	C71.632004,104.997147 71.092194,93.227661 71.081436,81.458977 
	C71.073715,73.014297 71.043198,64.633385 67.893211,56.676365 
	C67.271637,55.106236 65.446182,54.012691 64.175919,52.699360 
	C59.461342,50.075600 65.550011,41.970623 57.126884,40.654568 
	C56.331169,56.523499 58.079296,71.732033 65.449226,85.829979 
	C68.489662,91.646034 69.121048,92.100479 62.478638,97.281425 
	C59.727131,99.427544 55.920868,101.924591 55.353676,104.805344 
	C54.250374,110.409019 55.127171,116.396240 55.123684,122.224541 
	C55.120140,128.149719 55.044224,134.074844 55.000000,140.000000 
	C54.555340,140.000000 54.110676,140.000000 53.683258,139.755341 
	C53.333576,138.662750 52.643990,137.813080 52.648495,136.967117 
	C52.708569,125.679901 52.898956,114.393364 52.950855,103.106163 
	C52.956444,101.890572 52.534424,100.532425 51.911030,99.476379 
	C46.035618,89.523178 43.600700,78.602890 43.061691,67.239479 
	C42.728832,60.222183 43.000011,53.176235 43.000011,45.238773 
	C39.939522,47.976818 34.365196,46.304474 34.164803,51.467991 
	C33.842319,59.777245 32.656082,68.382103 37.530888,76.012703 
	C40.109951,80.049751 38.307613,82.502228 35.092907,85.106400 
	C33.573971,86.336868 32.256554,88.697205 32.156883,90.613693 
	C31.954250,94.509979 32.812660,98.449303 32.886509,102.377419 
	C32.921741,104.251556 32.162720,106.140640 31.763460,108.022949 
	C31.184273,107.909920 30.605083,107.796898 30.025896,107.683868 
	C30.025896,101.643341 30.025896,95.602806 30.025896,89.562279 
	C29.507996,89.561623 28.990093,89.560974 28.472193,89.560318 
	C26.626648,106.351120 29.755573,123.197105 29.000000,140.000000 
	C28.250000,140.000000 27.500000,140.000000 26.551819,139.559021 
	C26.235760,131.802460 26.336000,124.475311 25.948912,117.174011 
	C25.367245,106.202507 27.944336,95.083992 22.080873,84.396729 
	C17.752178,76.506851 19.981369,67.326195 20.654551,58.632572 
	C20.959711,54.691631 23.870405,50.282818 20.147388,48.019886 
	C24.289146,38.202141 28.201557,28.928043 32.395813,18.985855 
	C26.797812,22.450569 21.935049,25.357355 17.218933,28.485247 
	C16.474442,28.979017 16.059582,30.470526 16.054695,31.503384 
	C15.984516,46.331619 15.893713,61.161591 16.055912,75.988434 
	C16.160965,85.591385 16.719669,95.188835 16.930227,104.791924 
	C16.954790,105.912140 16.055000,107.052628 15.583741,108.183723 
	C14.985602,108.047256 14.387463,107.910797 13.789324,107.774338 
	C13.789324,81.670578 13.789324,55.566822 13.789324,29.636904 
	C9.344834,28.720537 5.172417,27.860268 1.000000,27.000000 
M78.846451,36.405163 
	C79.380852,37.509937 79.915253,38.614712 80.185745,39.173908 
	C88.466766,36.325661 96.398079,33.496521 104.402542,30.892204 
	C107.810585,29.783373 109.847107,27.992767 109.605690,23.826523 
	C100.056664,29.577862 90.248802,33.617165 79.256355,34.120712 
	C78.928673,34.135727 78.649803,35.216320 78.846451,36.405163 
z"/>
<path fill="#000000" opacity="1.000000" stroke="none" 
	d="
M55.468658,140.000000 
	C55.044224,134.074844 55.120140,128.149719 55.123684,122.224541 
	C55.127171,116.396240 54.250374,110.409019 55.353676,104.805344 
	C55.920868,101.924591 59.727131,99.427544 62.478638,97.281425 
	C69.121048,92.100479 68.489662,91.646034 65.449226,85.829979 
	C58.079296,71.732033 56.331169,56.523499 57.126884,40.654568 
	C65.550011,41.970623 59.461342,50.075600 64.175919,52.699360 
	C65.446182,54.012691 67.271637,55.106236 67.893211,56.676365 
	C71.043198,64.633385 71.073715,73.014297 71.081436,81.458977 
	C71.092194,93.227661 71.632004,104.997147 72.059303,116.762146 
	C72.101364,117.920151 72.937149,119.049316 74.500000,119.781631 
	C74.500000,109.407486 74.500000,99.033348 74.500000,87.207603 
	C77.503166,94.736877 74.815941,101.555206 76.928207,109.473434 
	C78.023895,107.190445 78.880577,106.194962 78.929398,105.161316 
	C79.102165,101.503326 79.491669,97.749191 78.890762,94.184616 
	C77.847099,87.993599 81.078415,84.192596 85.555847,81.301521 
	C89.231453,78.928169 89.445061,75.863846 88.652222,72.346680 
	C86.933342,64.721397 84.894798,57.164177 83.371750,49.502636 
	C83.112030,48.196167 84.397400,45.693913 85.600899,45.154816 
	C88.970238,43.645550 92.670456,42.874947 97.407959,41.465416 
	C96.902641,48.264816 96.227005,54.263275 96.065681,60.275532 
	C95.842278,68.601608 95.875732,76.940598 96.038170,85.269402 
	C96.219002,94.541138 96.621841,103.809738 97.042992,113.074486 
	C97.118599,114.737938 97.751434,116.376060 98.126999,118.025871 
	C98.615753,117.932556 99.104507,117.839233 99.593262,117.745911 
	C99.593262,108.896172 99.625496,100.046227 99.566383,91.196884 
	C99.554382,89.401138 99.032616,87.608276 99.026329,85.813103 
	C98.978485,72.148735 98.923492,58.483147 99.097115,44.820816 
	C99.118965,43.101452 100.458450,41.398834 101.936806,40.309025 
	C101.936806,71.818840 101.936790,103.328659 101.997490,134.838348 
	C101.997490,134.839294 102.921211,134.838470 103.999977,134.838470 
	C103.999977,132.991440 103.999977,131.203308 103.999977,129.415176 
	C103.999985,113.584312 103.871307,97.752090 104.039688,81.923012 
	C104.180862,68.652802 104.611237,55.384163 105.100319,42.121716 
	C105.144684,40.918755 106.554031,39.766132 107.424057,38.446739 
	C110.247772,62.217373 112.952637,84.987480 115.728813,108.357864 
	C118.275955,107.229515 119.997391,106.466934 121.621254,105.747581 
	C122.183662,110.108109 122.743332,114.447388 123.303001,118.786667 
	C123.746300,118.882370 124.189598,118.978073 124.632896,119.073776 
	C125.054565,117.636314 125.848923,116.191978 125.822540,114.762794 
	C125.762337,111.500938 125.021339,108.237877 125.121788,104.992783 
	C125.170273,103.426384 126.092712,101.278473 127.323578,100.481895 
	C130.019684,98.737061 130.705307,97.108185 130.177612,93.744484 
	C127.539650,76.929367 125.401268,60.036469 122.992889,43.184402 
	C122.179329,37.491673 123.489716,32.995377 128.811234,29.973131 
	C130.925400,28.772430 132.652237,26.889742 134.777710,25.658772 
	C135.000000,63.914124 135.000000,101.828247 135.000000,140.000000 
	C108.646332,140.000000 82.291824,140.000000 55.468658,140.000000 
z"/>
<path fill="#000000" opacity="1.000000" stroke="none" 
	d="
M1.000000,27.468658 
	C5.172417,27.860268 9.344834,28.720537 13.789324,29.636904 
	C13.789324,55.566822 13.789324,81.670578 13.789324,107.774338 
	C14.387463,107.910797 14.985602,108.047256 15.583741,108.183723 
	C16.055000,107.052628 16.954790,105.912140 16.930227,104.791924 
	C16.719669,95.188835 16.160965,85.591385 16.055912,75.988434 
	C15.893713,61.161591 15.984516,46.331619 16.054695,31.503384 
	C16.059582,30.470526 16.474442,28.979017 17.218933,28.485247 
	C21.935049,25.357355 26.797812,22.450569 32.395813,18.985855 
	C28.201557,28.928043 24.289146,38.202141 20.147388,48.019886 
	C23.870405,50.282818 20.959711,54.691631 20.654551,58.632572 
	C19.981369,67.326195 17.752178,76.506851 22.080873,84.396729 
	C27.944336,95.083992 25.367245,106.202507 25.948912,117.174011 
	C26.336000,124.475311 26.235760,131.802460 26.176819,139.559021 
	C17.693171,140.000000 9.386340,140.000000 1.000000,140.000000 
	C1.000000,102.645805 1.000000,65.291557 1.000000,27.468658 
z"/>
<path fill="#000000" opacity="1.000000" stroke="none" 
	d="
M135.000000,22.531219 
	C131.115799,23.843626 127.231583,24.687250 123.234756,25.555334 
	C123.234756,20.733938 123.234756,15.975306 123.234756,10.333747 
	C118.318863,13.256388 114.543518,16.203951 110.271362,17.900442 
	C100.108452,21.936178 89.406189,23.044201 78.460350,23.160501 
	C72.089882,23.228188 65.736443,24.898989 59.088898,25.891226 
	C59.899467,21.883518 58.712204,16.684309 63.439148,12.897538 
	C64.882179,11.741522 65.427025,9.464325 66.854561,6.831180 
	C54.686253,9.423485 45.974464,21.757601 44.692188,36.672295 
	C42.321388,36.672295 39.910496,36.672295 36.268955,36.672295 
	C40.032619,26.634363 43.667377,16.987017 47.257614,7.323133 
	C47.929649,5.514206 48.423477,3.639075 48.999771,1.397248 
	C77.549980,1.000000 106.099968,1.000000 135.000000,1.000000 
	C135.000000,8.016933 135.000000,15.039684 135.000000,22.531219 
z"/>
<path fill="#000000" opacity="1.000000" stroke="none" 
	d="
M29.468636,140.000000 
	C29.755573,123.197105 26.626648,106.351120 28.472193,89.560318 
	C28.990093,89.560974 29.507996,89.561623 30.025896,89.562279 
	C30.025896,95.602806 30.025896,101.643341 30.025896,107.683868 
	C30.605083,107.796898 31.184273,107.909920 31.763460,108.022949 
	C32.162720,106.140640 32.921741,104.251556 32.886509,102.377419 
	C32.812660,98.449303 31.954250,94.509979 32.156883,90.613693 
	C32.256554,88.697205 33.573971,86.336868 35.092907,85.106400 
	C38.307613,82.502228 40.109951,80.049751 37.530888,76.012703 
	C32.656082,68.382103 33.842319,59.777245 34.164803,51.467991 
	C34.365196,46.304474 39.939522,47.976818 43.000011,45.238773 
	C43.000011,53.176235 42.728832,60.222183 43.061691,67.239479 
	C43.600700,78.602890 46.035618,89.523178 51.911030,99.476379 
	C52.534424,100.532425 52.956444,101.890572 52.950855,103.106163 
	C52.898956,114.393364 52.708569,125.679901 52.648495,136.967117 
	C52.643990,137.813080 53.333576,138.662750 53.350250,139.755341 
	C45.312424,140.000000 37.624847,140.000000 29.468636,140.000000 
z"/>
<path fill="#000000" opacity="1.000000" stroke="none" 
	d="
M45.531342,1.000000 
	C45.722134,1.643879 45.614666,2.479979 45.139454,2.901242 
	C41.321781,6.285500 37.294285,9.444385 33.608536,12.962957 
	C29.946262,16.459120 25.078337,18.778065 21.046713,16.631443 
	C14.014247,12.887034 10.319424,17.309050 5.863021,20.677954 
	C4.282798,21.872551 2.908573,23.339643 1.220152,24.341167 
	C1.000000,16.383003 1.000000,8.766008 1.000000,1.000000 
	C15.687275,1.000000 30.374979,1.000000 45.531342,1.000000 
z"/>
<path fill="#000000" opacity="1.000000" stroke="none" 
	d="
M78.597313,36.102631 
	C78.649803,35.216320 78.928673,34.135727 79.256355,34.120712 
	C90.248802,33.617165 100.056664,29.577862 109.605690,23.826523 
	C109.847107,27.992767 107.810585,29.783373 104.402542,30.892204 
	C96.398079,33.496521 88.466766,36.325661 80.185745,39.173908 
	C79.915253,38.614712 79.380852,37.509937 78.597313,36.102631 
z"/>
</svg>